<?xml version="1.0" encoding="UTF-8" standalone="no"?>
<!-- Generator: Adobe Illustrator 23.0.3, SVG Export Plug-In . SVG Version: 6.00 Build 0)  -->

<svg
   xmlns:dc="http://purl.org/dc/elements/1.1/"
   xmlns:cc="http://creativecommons.org/ns#"
   xmlns:rdf="http://www.w3.org/1999/02/22-rdf-syntax-ns#"
   xmlns:svg="http://www.w3.org/2000/svg"
   xmlns="http://www.w3.org/2000/svg"
   xmlns:xlink="http://www.w3.org/1999/xlink"
   xmlns:sodipodi="http://sodipodi.sourceforge.net/DTD/sodipodi-0.dtd"
   xmlns:inkscape="http://www.inkscape.org/namespaces/inkscape"
   version="1.1"
   id="Layer_1"
   x="0px"
   y="0px"
   viewBox="0 0 500 500"
   style="enable-background:new 0 0 500 500;"
   xml:space="preserve"
   sodipodi:docname="logo.svg"
   inkscape:version="0.92.5 (2060ec1f9f, 2020-04-08)"
   inkscape:export-filename="/home/gjc216/bitmap.png"
   inkscape:export-xdpi="80.82"
   inkscape:export-ydpi="80.82"><metadata
   id="metadata958"><rdf:RDF><cc:Work
       rdf:about=""><dc:format>image/svg+xml</dc:format><dc:type
         rdf:resource="http://purl.org/dc/dcmitype/StillImage" /><dc:title /></cc:Work></rdf:RDF></metadata><defs
   id="defs956"><linearGradient
     inkscape:collect="always"
     id="linearGradient861"><stop
       style="stop-color:#16006d;stop-opacity:1;"
       offset="0"
       id="stop857" /><stop
       style="stop-color:#5f006d;stop-opacity:1"
       offset="1"
       id="stop859" /></linearGradient><linearGradient
     inkscape:collect="always"
     xlink:href="#linearGradient861"
     id="linearGradient863"
     x1="-463.54489"
     y1="-110.34973"
     x2="-163.82886"
     y2="135.9922"
     gradientUnits="userSpaceOnUse" /></defs><sodipodi:namedview
   pagecolor="#ffffff"
   bordercolor="#666666"
   borderopacity="1"
   objecttolerance="10"
   gridtolerance="10"
   guidetolerance="10"
   inkscape:pageopacity="0"
   inkscape:pageshadow="2"
   inkscape:window-width="1916"
   inkscape:window-height="1041"
   id="namedview954"
   showgrid="false"
   inkscape:zoom="1.1511698"
   inkscape:cx="-37.343593"
   inkscape:cy="218.81436"
   inkscape:window-x="0"
   inkscape:window-y="18"
   inkscape:window-maximized="0"
   inkscape:current-layer="g4918"
   showguides="true"
   inkscape:guide-bbox="true" />

<g
   id="g1144"
   transform="translate(542.99754,255.52825)"><g
     id="g1169"
     transform="translate(1.47419,1.932212)"><g
       id="g4918"
       transform="matrix(1.1968742,0,0,1.1968742,59.473214,-1.3070949)"><ellipse
   ry="197.33153"
   rx="198.61705"
   cy="-6.4413543"
   cx="-294.93491"
   id="path975"
   style="fill:url(#linearGradient863);fill-opacity:1;stroke:#000000;stroke-width:3.49790025;stroke-linecap:round;stroke-linejoin:miter;stroke-miterlimit:4;stroke-dasharray:none;stroke-dashoffset:0;stroke-opacity:1;paint-order:markers fill stroke;fill-rule:nonzero" />


<text
   xml:space="preserve"
   style="font-style:normal;font-variant:normal;font-weight:300;font-stretch:normal;font-size:89.58881378px;line-height:1.25;font-family:'URW Bookman';-inkscape-font-specification:'URW Bookman, Light';font-variant-ligatures:normal;font-variant-caps:normal;font-variant-numeric:normal;font-feature-settings:normal;text-align:start;letter-spacing:0px;word-spacing:0px;writing-mode:lr-tb;text-anchor:start;fill:#000000;fill-opacity:1;stroke:none;stroke-width:1.158476"
   id="text867"
   x="-10.304716"
   y="92.642769"
   transform="matrix(0.76891766,0.28919336,-0.28919336,0.76891766,-74.881666,52.979976)"><textPath
     xlink:href="#path1065"
     id="textPath1072"><tspan
   style="font-style:normal;font-variant:normal;font-weight:normal;font-stretch:normal;font-size:89.58880615px;font-family:Chilanka;-inkscape-font-specification:'Chilanka, Normal';font-variant-ligatures:normal;font-variant-caps:normal;font-variant-numeric:normal;font-feature-settings:normal;text-align:start;writing-mode:lr-tb;text-anchor:start;fill:#ffffff;fill-opacity:1;stroke-width:1.158476"
   id="tspan865">NEW Lab</tspan></textPath></text>
<g
   id="g1059"
   style="stroke:#ffffff;stroke-width:4.00793982;stroke-miterlimit:4;stroke-dasharray:none;stroke-opacity:1"
   transform="matrix(0.76952002,-0.09431651,0.09431651,0.76952002,-55.473849,18.158111)"><path
     inkscape:connector-curvature="0"
     id="path936"
     d="m -264.96642,132.66954 c 11.0119,-5.20951 44.6826,-11.76916 30.3222,9.76484 -9.6366,6.88371 -28.6364,3.85535 -30.3222,-9.76484 z"
     style="fill:none;fill-opacity:1;stroke:#ffffff;stroke-width:4.00793982;stroke-linecap:butt;stroke-linejoin:miter;stroke-miterlimit:4;stroke-dasharray:none;stroke-opacity:1" /><path
     sodipodi:nodetypes="ccccc"
     inkscape:connector-curvature="0"
     id="path940"
     d="m -228.54082,139.46077 c 14.6412,-19.85352 27.9765,-41.213623 39.4684,-63.495028 12.1243,-23.35426 2.5534,-48.959935 4.9729,-73.6339716 -4.8797,-14.1778094 -14.5097,-25.4349844 -23.8518,-35.8823844 -4.681,4.1814 -13.0209,3.1906 -15.8047,8.94156"
     style="fill:none;fill-opacity:1;stroke:#ffffff;stroke-width:4.00793982;stroke-linecap:butt;stroke-linejoin:miter;stroke-miterlimit:4;stroke-dasharray:none;stroke-opacity:1" /><path
     inkscape:connector-curvature="0"
     id="path938"
     d="m -228.54082,139.46077 c -0.1502,-31.07713 13.0314,-60.564594 26.8793,-87.366792 3.0314,-26.267347 -9.1837,-52.07942664 -20.8055,-74.942352 -17.1055,-26.33129 -57.8229,-16.69289 -44.534,17.6995674 -17.3325,19.9350396 -16.9319,-13.8570584 -19.679,-22.9404274 -16.096,3.74018 5.2265,31.8899724 -9.082,44.772926 -4.3132,22.620505 -15.2644,43.457018 -18.8657,66.167166 1.8024,24.091452 32.7296,31.270722 42.3175,52.337742 10.4975,5.63667 40.7789,-29.18247 43.7694,4.27217 z"
     style="fill:none;fill-opacity:1;stroke:#ffffff;stroke-width:4.00793982;stroke-linecap:butt;stroke-linejoin:miter;stroke-miterlimit:4;stroke-dasharray:none;stroke-opacity:1" /><path
     sodipodi:nodetypes="cc"
     inkscape:connector-curvature="0"
     id="path942"
     d="m -187.02172,-5.0842856 c 2.045,-12.7599684 -6.3244,-53.3739684 -17.2867,-24.7725384"
     style="fill:none;fill-opacity:1;stroke:#ffffff;stroke-width:4.00793982;stroke-linecap:butt;stroke-linejoin:miter;stroke-miterlimit:4;stroke-dasharray:none;stroke-opacity:1" /><path
     sodipodi:nodetypes="cccccc"
     inkscape:connector-curvature="0"
     id="path944"
     d="m -204.30842,-29.856824 c -15.2775,-29.39231 -44.5983,-49.39306 -66.1089,-73.839956 -17.6959,-13.91429 -34.4425,-32.61771 -58.8981,-32.77334 -28.278,-4.0529 17.4493,9.8624 17.5709,22.65076 20.7328,16.702686 39.9387,32.764506 60.6761,46.099156 0.6811,13.82974 11.8386,35.61523 27.3124,43.11115"
     style="fill:none;fill-opacity:1;stroke:#ffffff;stroke-width:4.00793982;stroke-linecap:butt;stroke-linejoin:miter;stroke-miterlimit:4;stroke-dasharray:none;stroke-opacity:1" /><path
     sodipodi:nodetypes="cccccccc"
     inkscape:connector-curvature="0"
     id="path952"
     d="m -304.01592,103.3438 -42.4452,-0.30869 c -20.5913,-14.421756 -33.0626,43.02515 -53.3276,11.52535 -11.0544,-23.62752 -2.4637,-51.111628 -11.6212,-75.489485 -7.5399,-25.793256 15.5953,-44.7713156 26.2189,-65.645299 13.4809,-20.01524 30.6093,-42.92166 56.5276,-45.73525 22.7632,-9.5545 51.2117,-1.99096 59.6458,22.94327 2.3747,4.02443 3.8663,10.377 -0.8879,13.48999"
     style="fill:none;fill-opacity:1;stroke:#ffffff;stroke-width:4.00793982;stroke-linecap:butt;stroke-linejoin:miter;stroke-miterlimit:4;stroke-dasharray:none;stroke-opacity:1" /><path
     sodipodi:nodetypes="csc"
     inkscape:connector-curvature="0"
     id="path946"
     d="m -269.90552,-35.876314 c -5.9272,2.5216 -25.5953,-8.08747 -29.1345,-5.07717 -1.2919,1.09885 5.0704,7.90711 8.9682,13.8242"
     style="fill:none;stroke:#ffffff;stroke-width:4.00793982;stroke-linecap:butt;stroke-linejoin:miter;stroke-miterlimit:4;stroke-dasharray:none;stroke-opacity:1" /><path
     sodipodi:nodetypes="csscc"
     inkscape:connector-curvature="0"
     id="path948"
     d="m -298.92252,-40.815394 c -7.6615,-4.43207 -13.9607,-9.24987 -16.1016,-4.41436 -4.5003,10.16466 2.2246,36.7679164 10.1964,41.2309674 2.6969,1.509918 5.5366,0.48573 8.1327,-4.566434 0.7498,-3.4763314 1.1321,-7.4512274 3.9463,-10.0243394"
     style="fill:none;fill-opacity:1;stroke:#ffffff;stroke-width:4.00793982;stroke-linecap:butt;stroke-linejoin:miter;stroke-miterlimit:4;stroke-dasharray:none;stroke-opacity:1" /><path
     sodipodi:nodetypes="ccc"
     inkscape:connector-curvature="0"
     id="path950"
     d="m -305.96632,-4.8605216 c -6.384,28.6479316 -50.9799,59.1164466 -24.1855,87.3702146 5.0502,4.713149 21.4964,15.843046 26.1359,20.834107"
     style="fill:none;stroke:#ffffff;stroke-width:4.00793982;stroke-linecap:butt;stroke-linejoin:miter;stroke-miterlimit:4;stroke-dasharray:none;stroke-opacity:1" /><path
     inkscape:connector-curvature="0"
     id="path954"
     d="m -360.04362,102.41772 c 11.7084,15.40555 5.2917,37.81052 -14.6188,23.20375 l -2.8235,-1.69077 -2.314,-2.37407"
     style="fill:none;stroke:#ffffff;stroke-width:4.00793982;stroke-linecap:butt;stroke-linejoin:miter;stroke-miterlimit:4;stroke-dasharray:none;stroke-opacity:1" /><path
     sodipodi:nodetypes="ccccc"
     inkscape:connector-curvature="0"
     id="path956"
     d="m -402.02572,110.44372 c -24.6995,-30.062182 -27.5044,-69.797804 -34.633,-106.2913656 -10.3751,-25.1416574 -15.9251,-52.8425484 -1.0115,-77.1183584 5.8162,-28.797526 31.2165,-45.799516 55.4128,-58.562396 11.706,-6.90156 30.225,-8.93957 43.5135,-5.13587"
     style="fill:none;stroke:#ffffff;stroke-width:4.00793982;stroke-linecap:butt;stroke-linejoin:miter;stroke-miterlimit:4;stroke-dasharray:none;stroke-opacity:1" /><path
     sodipodi:nodetypes="cc"
     inkscape:connector-curvature="0"
     id="path958"
     d="m -360.04362,102.41772 c 12.0705,-1.34362 13.865,-25.993517 22.8432,-30.8692"
     style="fill:none;stroke:#ffffff;stroke-width:4.00793982;stroke-linecap:butt;stroke-linejoin:miter;stroke-miterlimit:4;stroke-dasharray:none;stroke-opacity:1" /></g><path
   style="opacity:1;fill:none;fill-opacity:1;fill-rule:nonzero;stroke:none;stroke-width:3.40058208;stroke-linecap:round;stroke-linejoin:miter;stroke-miterlimit:4;stroke-dasharray:none;stroke-dashoffset:0;stroke-opacity:1;paint-order:markers fill stroke"
   d="m -433.05212,29.023269 c 0,-84.344888 68.37506,-152.719939 152.71997,-152.719939 84.34491,0 152.71997,68.375051 152.71997,152.719939"
   id="path1065"
   inkscape:connector-curvature="0"
   sodipodi:nodetypes="csc" /></g></g></g></svg>