<svg xmlns="http://www.w3.org/2000/svg" xmlns:xlink="http://www.w3.org/1999/xlink" xml:space="preserve" style="enable-background:new 0 0 500 500" viewBox="0 0 500 500"><defs><linearGradient id="a"><stop offset="0" style="stop-color:#16006d;stop-opacity:1"/><stop offset="1" style="stop-color:#5f006d;stop-opacity:1"/></linearGradient><linearGradient xlink:href="#a" id="b" x1="-463.545" x2="-163.829" y1="-110.35" y2="135.992" gradientUnits="userSpaceOnUse"/></defs><g transform="matrix(1.19687 0 0 1.19687 603.945 256.153)"><ellipse cx="-294.935" cy="-6.441" rx="198.617" ry="197.332" style="fill:url(#b);fill-opacity:1;stroke:#000;stroke-width:3.49790025;stroke-linecap:round;stroke-linejoin:miter;stroke-miterlimit:4;stroke-dasharray:none;stroke-dashoffset:0;stroke-opacity:1;paint-order:markers fill stroke;fill-rule:nonzero"/><text xml:space="preserve" x="-10.305" y="92.643" style="font-style:normal;font-variant:normal;font-weight:300;font-stretch:normal;font-size:89.58881378px;line-height:1.25;font-family:&quot;URW Bookman&quot;;-inkscape-font-specification:&quot;URW Bookman, Light&quot;;font-variant-ligatures:normal;font-variant-caps:normal;font-variant-numeric:normal;font-feature-settings:normal;text-align:start;letter-spacing:0;word-spacing:0;writing-mode:lr-tb;text-anchor:start;fill:#000;fill-opacity:1;stroke:none;stroke-width:1.158476" transform="matrix(.76892 .2892 -.2892 .76892 -74.882 52.98)"><textPath xlink:href="#c"><tspan style="font-style:normal;font-variant:normal;font-weight:400;font-stretch:normal;font-size:89.58880615px;font-family:Chilanka;-inkscape-font-specification:&quot;Chilanka, Normal&quot;;font-variant-ligatures:normal;font-variant-caps:normal;font-variant-numeric:normal;font-feature-settings:normal;text-align:start;writing-mode:lr-tb;text-anchor:start;fill:#fff;fill-opacity:1;stroke-width:1.158476">NEW Lab</tspan></textPath></text><g style="stroke:#fff;stroke-width:4.00793982;stroke-miterlimit:4;stroke-dasharray:none;stroke-opacity:1"><path d="M-264.966 132.67c11.011-5.21 44.682-11.77 30.322 9.764-9.637 6.884-28.637 3.856-30.322-9.764z" style="fill:none;fill-opacity:1;stroke:#fff;stroke-width:4.00793982;stroke-linecap:butt;stroke-linejoin:miter;stroke-miterlimit:4;stroke-dasharray:none;stroke-opacity:1" transform="rotate(-6.989 120.96 463.381) scale(.77528)"/><path d="M-228.54 139.46c14.64-19.853 27.976-41.213 39.468-63.494 12.124-23.355 2.553-48.96 4.972-73.634-4.88-14.178-14.51-25.435-23.851-35.883-4.681 4.182-13.021 3.191-15.805 8.942" style="fill:none;fill-opacity:1;stroke:#fff;stroke-width:4.00793982;stroke-linecap:butt;stroke-linejoin:miter;stroke-miterlimit:4;stroke-dasharray:none;stroke-opacity:1" transform="rotate(-6.989 120.96 463.381) scale(.77528)"/><path d="M-228.54 139.46c-.151-31.076 13.03-60.564 26.878-87.366 3.032-26.267-9.183-52.08-20.805-74.942-17.106-26.332-57.823-16.693-44.534 17.7-17.333 19.934-16.932-13.858-19.679-22.941-16.096 3.74 5.226 31.89-9.082 44.773-4.313 22.62-15.264 43.457-18.866 66.167 1.803 24.091 32.73 31.27 42.318 52.338 10.497 5.636 40.779-29.183 43.77 4.272zM-187.022-5.084c2.045-12.76-6.324-53.374-17.286-24.773" style="fill:none;fill-opacity:1;stroke:#fff;stroke-width:4.00793982;stroke-linecap:butt;stroke-linejoin:miter;stroke-miterlimit:4;stroke-dasharray:none;stroke-opacity:1" transform="rotate(-6.989 120.96 463.381) scale(.77528)"/><path d="M-204.308-29.857c-15.278-29.392-44.599-49.393-66.11-73.84-17.695-13.914-34.442-32.617-58.897-32.773-28.278-4.053 17.449 9.862 17.57 22.65 20.733 16.703 39.94 32.765 60.677 46.1.68 13.83 11.838 35.615 27.312 43.11M-304.016 103.344l-42.445-.309c-20.591-14.422-33.063 43.025-53.328 11.525-11.054-23.627-2.463-51.111-11.62-75.489-7.54-25.793 15.594-44.771 26.218-65.645 13.48-20.016 30.61-42.922 56.528-45.736 22.763-9.554 51.211-1.99 59.645 22.944 2.375 4.024 3.867 10.377-.888 13.49" style="fill:none;fill-opacity:1;stroke:#fff;stroke-width:4.00793982;stroke-linecap:butt;stroke-linejoin:miter;stroke-miterlimit:4;stroke-dasharray:none;stroke-opacity:1" transform="rotate(-6.989 120.96 463.381) scale(.77528)"/><path d="M-269.906-35.876c-5.927 2.521-25.595-8.088-29.134-5.077-1.292 1.098 5.07 7.907 8.968 13.824" style="fill:none;stroke:#fff;stroke-width:4.00793982;stroke-linecap:butt;stroke-linejoin:miter;stroke-miterlimit:4;stroke-dasharray:none;stroke-opacity:1" transform="rotate(-6.989 120.96 463.381) scale(.77528)"/><path d="M-298.923-40.815c-7.661-4.432-13.96-9.25-16.101-4.415-4.5 10.165 2.224 36.768 10.196 41.231 2.697 1.51 5.537.486 8.133-4.566.75-3.477 1.132-7.451 3.946-10.025" style="fill:none;fill-opacity:1;stroke:#fff;stroke-width:4.00793982;stroke-linecap:butt;stroke-linejoin:miter;stroke-miterlimit:4;stroke-dasharray:none;stroke-opacity:1" transform="rotate(-6.989 120.96 463.381) scale(.77528)"/><path d="M-305.966-4.86c-6.384 28.647-50.98 59.116-24.186 87.37 5.05 4.713 21.497 15.843 26.136 20.834M-360.044 102.418c11.709 15.405 5.292 37.81-14.618 23.203l-2.824-1.69-2.314-2.374M-402.026 110.444c-24.7-30.062-27.504-69.798-34.633-106.292-10.375-25.141-15.925-52.842-1.011-77.118 5.816-28.798 31.216-45.8 55.413-58.562 11.706-6.902 30.225-8.94 43.513-5.136" style="fill:none;stroke:#fff;stroke-width:4.00793982;stroke-linecap:butt;stroke-linejoin:miter;stroke-miterlimit:4;stroke-dasharray:none;stroke-opacity:1" transform="rotate(-6.989 120.96 463.381) scale(.77528)"/><path d="M-360.044 102.418c12.07-1.344 13.865-25.994 22.844-30.87" style="fill:none;stroke:#fff;stroke-width:4.00793982;stroke-linecap:butt;stroke-linejoin:miter;stroke-miterlimit:4;stroke-dasharray:none;stroke-opacity:1" transform="rotate(-6.989 120.96 463.381) scale(.77528)"/></g><path id="c" d="M-433.052 29.023c0-84.345 68.375-152.72 152.72-152.72s152.72 68.375 152.72 152.72" style="opacity:1;fill:none;fill-opacity:1;fill-rule:nonzero;stroke:none;stroke-width:3.40058208;stroke-linecap:round;stroke-linejoin:miter;stroke-miterlimit:4;stroke-dasharray:none;stroke-dashoffset:0;stroke-opacity:1;paint-order:markers fill stroke"/></g></svg>